<svg xmlns="http://www.w3.org/2000/svg" viewBox="0 0 212 212"><defs><style>.cls-1{fill:#606060;}</style></defs><title>Bull_box</title><g id="Layer_2" data-name="Layer 2"><g id="OBJECTS"><rect width="212" height="212" rx="22.05" ry="22.05"/><path class="cls-1" d="M78.91,70.2a8.92,8.92,0,0,0-2.8-1.06c-7.52-.09-15,0-22.55-.05-4.3,0-6.54-1.95-7.11-6.16-.83-6.17-1.59-12.35-2.49-18.52-.11-.77-.93-1.45-1.42-2.16-.69.53-1.69.91-2,1.61-4.28,9.42-8.59,18.84-12.6,28.39a18.6,18.6,0,0,0-1.26,7.7C27,87.34,32.06,92,39.36,92h8.13c3.39,0,6.78.13,10.16-.07a5.74,5.74,0,0,0,3.5-1.53c5.6-5.8,11.08-11.71,16.53-17.64A9.86,9.86,0,0,0,78.91,70.2Z"/><path class="cls-1" d="M191.06,71.87c-4.1-9.57-8.43-19.05-12.75-28.53-.32-.7-1.31-1.09-2-1.62-.48.72-1.28,1.39-1.39,2.16-.89,6-1.66,12.07-2.44,18.11-.6,4.62-2.77,6.57-7.39,6.58h-11c-4,0-8,0-12,0-.7,0-1.84.44-2,.91a2.83,2.83,0,0,0,.64,2.29q8.52,9.28,17.2,18.4a4.4,4.4,0,0,0,2.82,1.23c6.91.1,13.81.06,20.72,0a8.62,8.62,0,0,0,6.78-3.14C192.54,83.41,193.62,77.82,191.06,71.87Z"/><path class="cls-1" d="M152.21,100.79c0-.11,0-.21-.08-.32a5,5,0,0,0-.35-.95c-.08-.17-.17-.35-.26-.52l-.15-.25a2.39,2.39,0,0,0-.21-.34,7.06,7.06,0,0,0-.48-.67,4.21,4.21,0,0,0-.27-.35c-.14-.18-.3-.37-.47-.55l-.13-.15L138.6,84.36q-4.92-5.38-9.79-10.78L127.41,72l-.5-.52a5.17,5.17,0,0,0-1.6-1.09,4.21,4.21,0,0,0-.59-.23c-.21-.07-.42-.12-.63-.17s-.26-.05-.39-.06l-.34,0c-.23,0-.48,0-.73,0q-13.2.11-26.41,0c-.25,0-.5,0-.73,0l-.34,0c-.13,0-.26,0-.39.06s-.42.1-.63.17a4.23,4.23,0,0,0-.59.23,5.17,5.17,0,0,0-1.6,1.09l-.36.37L90,73.58q-7.66,8.51-15.39,16.95-2.88,3.15-5.74,6.31c-.17.18-.33.37-.47.55a4.11,4.11,0,0,0-.27.35,7.06,7.06,0,0,0-.48.67,3.13,3.13,0,0,0-.21.34l-.15.25c-.1.18-.18.35-.26.52a5,5,0,0,0-.35.95c0,.11-.06.22-.08.32a5.07,5.07,0,0,0-.11.67,4.4,4.4,0,0,0,0,.63,6.55,6.55,0,0,0,.07,1,2.69,2.69,0,0,0,.08.39,9.29,9.29,0,0,0,.81,2.42l.11.26q4,8.35,8.11,16.7a1.06,1.06,0,0,0,.08.15l1.92,4A22.1,22.1,0,0,0,79,129.49a2.36,2.36,0,0,0,3,.88l.18-.1a1.35,1.35,0,0,0,.23-.19l.1-.1a1.75,1.75,0,0,0,.25-.34h0a6.63,6.63,0,0,0,.66-1.66c.1-.33.19-.65.28-1l.06-.17c.82-2.49,1.53-5,2.34-7.66h0a.58.58,0,0,0,0-.12c-5.22-2.38-7-7.2-7.48-11.67a.09.09,0,0,0,0-.05,30.06,30.06,0,0,1,.74-9.58L92.75,108h0l.57.44,1.5,1.15,0,0A7.18,7.18,0,0,1,97,113.5a5.18,5.18,0,0,1,.11.79,7.19,7.19,0,0,1,0,1.23,2.69,2.69,0,0,1,0,.4v0a9.4,9.4,0,0,1-.5,2.15q-1.37,3.8-2.75,7.59c-.06.17-.12.35-.19.52q-3.16,8.51-6.27,17s0,0,0,0q-1.35,3.62-2.72,7.22a7.61,7.61,0,0,0,.32,7l.16.29c.78,1.85,1.72,3.65,2.66,5.44l.11.23.21.4.09.19a9.3,9.3,0,0,0,.53.93c.11.2.23.39.35.57s.21.31.32.45a10.18,10.18,0,0,0,.64.8c.14.16.29.32.45.47a7.62,7.62,0,0,0,.9.81,2.85,2.85,0,0,0,.4.31,9.36,9.36,0,0,0,1.93,1.08,9,9,0,0,0,1.5.5c.22.06.45.11.68.15l.78.12c.25,0,.51.06.76.07s.53,0,.8,0h.06q11.07,0,22.14,0h.09a9.62,9.62,0,0,0,1.21-.07,2,2,0,0,0,.35,0c.27,0,.52-.07.78-.12a10.2,10.2,0,0,0,4.11-1.73,6.47,6.47,0,0,0,.58-.45,5.81,5.81,0,0,0,.45-.4,8.16,8.16,0,0,0,.65-.67,6.55,6.55,0,0,0,.48-.57c.16-.2.31-.41.46-.63s.3-.45.44-.69.36-.61.53-.93l.09-.19c.06-.14.14-.27.21-.4a2.33,2.33,0,0,1,.11-.23c.94-1.79,1.88-3.59,2.66-5.44l.16-.29a7.61,7.61,0,0,0,.32-7q-1.37-3.6-2.72-7.22s0,0,0,0q-3.09-8.52-6.27-17l-.19-.52q-1.38-3.8-2.75-7.59a9.43,9.43,0,0,1-.5-2.15v0l0-.4a8.42,8.42,0,0,1,0-1.23,7.26,7.26,0,0,1,2.23-4.7l0,0,1.5-1.15.57-.44h0l13.4-10.27a30.06,30.06,0,0,1,.74,9.58.09.09,0,0,0,0,.05c-.45,4.47-2.26,9.29-7.48,11.67a.55.55,0,0,0,0,.12h0c.81,2.62,1.52,5.17,2.34,7.66a1.12,1.12,0,0,0,.06.17c.09.33.18.65.28,1a6.63,6.63,0,0,0,.66,1.66h0a1.75,1.75,0,0,0,.25.34.47.47,0,0,0,.1.1,1.35,1.35,0,0,0,.23.19.81.81,0,0,0,.18.1,2.36,2.36,0,0,0,3-.88,22.18,22.18,0,0,0,1.29-2.52l1.92-4a1.11,1.11,0,0,0,.08-.15c2.74-5.55,5.42-11.13,8.11-16.7l.11-.26a9.29,9.29,0,0,0,.81-2.42c0-.13.06-.26.08-.39a8.52,8.52,0,0,0,.07-1,4.4,4.4,0,0,0,0-.63A5.24,5.24,0,0,0,152.21,100.79Z"/><path class="cls-1" d="M134.12,42.91,121.59,55.68,108.87,42.87,96.8,55.78,84.6,43.13v18.5h49.51Z"/></g></g></svg>